
<?xml version="1.0" encoding="utf-8"?><svg xmlns="http://www.w3.org/2000/svg" xmlns:xlink="http://www.w3.org/1999/xlink"><defs><svg viewBox="0 0 26 26" id="GDPR1" xmlns="http://www.w3.org/2000/svg"><path class="aast0" d="M20.4 15.2c.2.3.5.9 1.2 2.1.6 1 1.3 2.1 1.3 2.1l.1.1.1.1v1.3c0 .1-.1.1-.1.1h-6.2c-.6 0-1.1.4-1.2.9-.3 1.4-1.7 2.2-3.1 1.9-.9-.2-1.6-.9-1.9-1.9-.1-.6-.6-1-1.2-.9H3.2c-.1 0-.1 0-.1-.1v-1.3c1.8-1.3 2.8-5.5 2.8-7.4V9.1c0-3.8 3.2-6.9 7.2-6.9 1 0 2.1.2 3 .6.8.3 1.6.8 2.3 1.5.4-.2.8-.3 1.1-.4-.8-.9-1.8-1.6-3-2.1-1.1-.5-2.3-.7-3.4-.7-4.6 0-8.3 3.6-8.3 7.9v3.1c0 1.9-1 5.6-2.3 6.6-.3.2-.5.6-.5.9v1.2c0 .7.6 1.2 1.2 1.2h6.2c.1 0 .1 0 .1.1.5 2 2.5 3.2 4.4 2.7 1.3-.3 2.4-1.4 2.7-2.7 0-.1.1-.1.1-.1h6.2c.7 0 1.2-.5 1.2-1.2v-1.2c0-.3-.1-.7-.4-.9-.8-1.4-1.7-2.8-2.1-3.6-.3 0-.6.1-.9.1h-.3z"/><path class="aast0" d="M15 9.4c0-1.5.6-2.9 1.6-4-.4-.3-.8-.6-1.2-.8-.7-.3-1.5-.5-2.4-.5-3-.1-5.6 2.3-5.6 5.4v3.2c0 1.4-.7 4.3-1.8 5.1-.1.1-.2.2-.2.4v.9c0 .3.2.5.5.5h4.5c.2 0 .4.2.5.4.3 1.2 1.5 1.9 2.7 1.7.8-.2 1.5-.8 1.7-1.7.1-.2.3-.4.5-.4h4.5c.3 0 .5-.2.5-.5v-.9c0-.2-.1-.3-.2-.4l-1.8-3C16.5 14 15 11.9 15 9.4z"/><circle class="aast0" cx="21" cy="9.4" r="3.8"/></svg><svg viewBox="0 0 26 26" id="GDPR2" xmlns="http://www.w3.org/2000/svg"><path class="abst0" d="M13.4 25.6l-.3-.2c-.7-.4-7-4.1-8.5-8.6C2.7 11 4.1 3.3 4.1 2.9v-.2l.2-.1c.1-.1 3-2 9-2 6.1 0 8.9 1.9 9 2l.2.1v.2c.1.3 1.4 8.1-.5 13.8-1.3 4.6-7.6 8.3-8.3 8.7l-.3.2zM5.2 3.4c-.2 1.3-1.2 8.1.5 13 .6 1.7 2 3.6 4.3 5.4 1.1.9 2.3 1.7 3.5 2.5 1.2-.7 2.4-1.6 3.5-2.5 2.2-1.8 3.7-3.7 4.3-5.4 1.6-5 .7-11.7.5-13.1-.7-.4-3.4-1.7-8.2-1.7-5.1.1-7.7 1.4-8.4 1.8z"/><path class="abst0" d="M17.9 9.7h-.3V8.5c0-2.3-1.8-4.2-4.1-4.3h-.2c-2.3.1-4.1 2-4.1 4.3v1.2h-.3c-.5.1-.8.5-.8 1V17c0 .5.3.9.8 1H18c.5-.1.8-.5.8-1v-6.3c-.1-.6-.4-1-.9-1zm-3.7 4v1.9c0 .2-.2.4-.4.4h-.9c-.2 0-.4-.2-.4-.4v-1.9c-.4-.5-.4-1.2 0-1.6.2-.2.4-.3.7-.3h.2c.6.1 1.1.6 1 1.2.1.3 0 .6-.2.7zm1.7-4h-5V8.5C10.9 7.1 12 6 13.4 6s2.5 1.1 2.5 2.5v1.2z"/></svg><svg viewBox="0 0 26 26" id="GDPR3" xmlns="http://www.w3.org/2000/svg"><path class="acst0" d="M7.8 6L7 5c4.4-3.3 10.5-3.6 15.1-.6l-.6 1c-4.2-2.7-9.7-2.5-13.7.6zM6.2 7.3l-.9-.8c-1.1 1.1-2 2.4-2.6 3.9l1.1.4c.6-1.2 1.4-2.4 2.4-3.5zm14.6 14.5l-.1-1.2c-1.3.1-2.7-.1-4-.6l-.4 1.1c1.1.4 2.4.7 3.6.7.3.1.6 0 .9 0zM15 19.3c-1-.6-1.9-1.5-2.4-2.6-.3-.7-.9-2.1-.2-3.2.5-.8 1.4-1.2 2.3-1.2.8 0 3.7 3 2.1 1.5 1.2 1.7 2.5 2.5 3.8 2.4.9 0 1.7-.4 2.3-1.1.8-.8 1.2-1.9 1.1-3-.1-2.6-2.3-4.2-3-4.8-2.8-2-6.3-2.5-9.6-1.4C10.5 6.2 6 8 4.8 13c-.3 1.1-.3 2.3-.2 3.5l1.2-.2c-.1-1-.1-2 .2-3 1-4.4 5-6 5.8-6.2 2.9-1 6-.5 8.5 1.2.6.5 2.5 1.9 2.6 3.8.1.8-.2 1.5-.7 2.1-.4.5-1 .7-1.6.8-1.1.1-2.1-1-2.7-1.9-.7-1-1.6-1.9-3-2s-2.6.6-3.4 1.7c-1 1.7-.2 3.5.1 4.3.6 1.3 1.6 2.4 2.9 3.2l.5-1zm-6.3 2.4c-1-1-1.8-2.1-2.4-3.4l-1.1.4c.6 1.5 1.5 2.8 2.7 3.9l.8-.9zM21 12.1c-.7-1.4-1.8-2.5-3.1-3.2l-.6 1.1c1.1.6 2 1.5 2.6 2.7l1.1-.6zm-6.1 10.5c-1.2-.5-4-2-5.2-5.1-.4-.9-1-2.6-.3-4.5.6-1.6 1.9-2.8 3.6-3.3.9-.3 1.8-.4 2.8-.2l.2-1.2c-1.1-.2-2.3-.1-3.3.3-2 .7-3.5 2.1-4.3 4-.9 2.3-.1 4.4.3 5.4 1.4 3.5 4.6 5.2 5.9 5.7l.3-1.1zm8.7-4.6l-.7-1c-1.3.8-2.9 1.1-4.4.7-1.6-.5-2.9-1.6-3.5-3.2l-1.1.4c.8 1.9 2.4 3.3 4.3 3.9.5.2 1.1.2 1.7.2 1.3.1 2.6-.3 3.7-1z"/></svg><svg viewBox="0 0 12 8" id="arrow" xmlns="http://www.w3.org/2000/svg"><path d="M11.703.298a.89.89 0 00-1.329 0L5.99 5.024 1.613.298a.89.89 0 00-1.33 0 .975.975 0 000 1.375l5.143 5.42c.092.1.092.1.194.1l.092.102c.092-.009.185.093.379.093.092 0 .286 0 .378-.102 0 0 .092 0 .092-.101.093 0 .194-.102.194-.102l5.04-5.419c.287-.286.287-.97-.092-1.366z"/></svg><svg viewBox="0 0 19.7 36" id="arrow-left" xmlns="http://www.w3.org/2000/svg"><path class="aest0" d="M.315 18.015c0-.3.1-.7.4-.9l16.6-16.6c.2-.2.5-.3.8-.3s.6.1.8.3c.5.5.5 1.2 0 1.6l-16.3 16.5c-.3.4-.6.6-1 .6-.7 0-1.3-.5-1.3-1.2z"/><path class="aest0" d="M.315 18.015c0 .3.1.7.4.9l16.6 16.6c.2.2.5.3.8.3s.6-.1.8-.3c.5-.5.5-1.2 0-1.6l-16.3-16.5c-.3-.4-.6-.6-1-.6-.7 0-1.3.5-1.3 1.2z"/></svg><svg viewBox="0 0 19.7 36" id="arrow-right" xmlns="http://www.w3.org/2000/svg"><path class="afst0" d="M19.315 18.015c0-.3-.1-.7-.4-.9L2.315.515c-.2-.2-.5-.3-.8-.3s-.6.1-.8.3c-.5.5-.5 1.2 0 1.6l16.4 16.4c.3.4.6.6 1 .6.7.1 1.2-.4 1.2-1.1z"/><path class="afst0" d="M19.315 18.015c0 .3-.1.7-.4.9l-16.6 16.6c-.2.2-.5.3-.8.3s-.6-.1-.8-.3c-.5-.5-.5-1.2 0-1.6l16.4-16.4c.3-.4.6-.6 1-.6.7-.1 1.2.4 1.2 1.1z"/></svg><svg viewBox="0 0 23 21" id="baby" xmlns="http://www.w3.org/2000/svg"><g transform="translate(-1.4 -17.232)"><circle class="agst0" cx="6.8" cy="31.4" r="1"/><circle class="agst0" cx="15.9" cy="31.4" r="1"/><path class="agst0" d="M13.3 32.6c-1.1 1.1-2.8 1.1-3.9 0-.2-.2-.5-.2-.7 0s-.2.5 0 .7c1.5 1.5 3.8 1.5 5.3 0 .2-.2.2-.5 0-.7s-.5-.2-.7 0z"/><path class="agst0" d="M21.5 26.1c.2-.1.4-.2.5-.3.2-.1.3-.3.5-.4.2-.1.3-.3.4-.4.1-.1.2-.2.3-.4.1-.1.1-.1.2-.1s.3.1.4.2c.2 0 .2.2.2.3 0 .1 0 .2-.1.2-.1.2-.3.3-.4.5-.2.2-.4.4-.6.5-.2.2-.5.4-.7.6-.3.2-.5.4-.8.5-.1 1.6-.5 3.2-1.1 4.7-.5 1.3-1.3 2.4-2.3 3.3-.9.9-2 1.6-3.2 2-1.9.7-4 .9-6 .4-.7-.2-1.5-.4-2.1-.7-.7-.3-1.3-.7-1.9-1.2-.6-.5-1.1-1.1-1.5-1.8-.5-.7-.8-1.5-1-2.4-.3-1-.4-2-.4-3s.1-2.1.4-3.1c.3-1 .6-1.9 1.2-2.7.5-.8 1.1-1.6 1.9-2.3.6-.5 1.4-1.1 2.3-1.5.2-.1.4-.1.6.1.1.1.2.2.2.4 0 .1 0 .2-.1.3-.1.1-.1.2-.2.2l-.5.3c-.4.2-.7.4-1 .7-.5.3-.9.7-1.3 1.1-.5.5-.9 1-1.2 1.6-.4.7-.7 1.5-.9 2.3-.3 1-.4 1.9-.4 2.9 0 .9.1 1.8.3 2.7.2.7.5 1.4.9 2 .3.5.7 1 1.2 1.5.4.4.9.7 1.4 1 .5.3 1 .5 1.5.6.4.1.9.3 1.3.3.3.1.7.1 1 .1h.6c1.1 0 2.2-.2 3.2-.5 1-.4 2-.9 2.8-1.7.9-.8 1.6-1.8 2.1-2.8.6-1.3 1-2.7 1.1-4.1-.6.3-1.2.5-1.9.6-.7.2-1.3.2-2 .2-1 0-1.9-.1-2.8-.4-.9-.2-1.7-.6-2.4-1.1-.7-.5-1.3-1.1-1.7-1.9-.4-.8-.7-1.7-.6-2.7 0-.8.1-1.5.4-2.2.5-1.3 1.6-2.3 2.9-2.7.7-.2 1.3-.4 2-.4.6 0 1.2.1 1.8.2.6.1 1.2.4 1.7.6.6.3 1.1.7 1.5 1.1.5.5.9 1 1.2 1.6.4.7.6 1.4.8 2.1.2.9.3 1.7.3 2.6v.5zm-1.1.6v-1.1c0-1.1-.2-2.3-.6-3.3-.3-.8-.8-1.6-1.5-2.3-.6-.6-1.3-1-2-1.3-.7-.3-1.5-.4-2.3-.4-.6 0-1.1.1-1.7.3-.5.2-1 .5-1.4.8-.4.4-.7.8-.9 1.3-.2.6-.3 1.2-.3 1.8 0 .7.1 1.3.4 1.9.3.6.7 1.2 1.2 1.6.6.5 1.3.9 2 1.1.9.3 1.9.4 2.9.4.7 0 1.4-.1 2.1-.3.9.1 1.5-.1 2.1-.5z"/></g></svg><svg viewBox="0 0 20 20" id="boy" xmlns="http://www.w3.org/2000/svg"><path class="ahst0" d="M7.6 17.6c3.3.2 6.2-2.3 6.4-5.6.1-1.4-.3-2.8-1.1-3.9l5-4.4c.2-.2.3-.6.1-.8-.2-.2-.6-.3-.8-.1l-5 4.4c-1.8-1.7-4.5-2.1-6.7-1.1-.3.2-.5.6-.3.8s.5.4.8.3c2.4-1.1 5.3-.1 6.5 2.3s.1 5.3-2.3 6.5c-2.4 1.1-5.3.1-6.5-2.3-.8-1.5-.7-3.4.3-4.8.2-.3.1-.6-.2-.8s-.6-.1-.8.2c-1.8 2.8-1.1 6.5 1.7 8.4.9.5 1.9.9 2.9.9z" fill="#467dfc"/><path class="ahst0" d="M18.6 2.9H14c-.3 0-.6-.3-.6-.6s.3-.6.6-.6h4.6c.3 0 .6.3.6.6s-.3.6-.6.6z" fill="#467dfc"/><path class="ahst0" d="M19.2 2.3v4.6c0 .3-.3.6-.6.6s-.6-.3-.6-.6V2.3c0-.3.3-.6.6-.6s.6.2.6.6z" fill="#467dfc"/></svg><svg viewBox="0 0 49 49" id="boy-girl" xmlns="http://www.w3.org/2000/svg"><path class="aist0" d="M46.4 26c-.2 2.4-.7 4.8-1.7 7.1-1.1 2.6-2.7 5-4.7 7s-4.4 3.6-7 4.7c-2.7 1.1-5.6 1.7-8.6 1.7s-5.9-.6-8.6-1.7c-2.6-1.1-5-2.7-7-4.7s-3.6-4.4-4.7-7c-1-2.3-1.5-4.6-1.7-7.1h-2c.8 12.6 11.2 22.5 23.9 22.5 12.8 0 23.2-9.9 23.9-22.5h-1.8z" fill="#f7adb5"/><path class="aist1" d="M2.6 23c.2-2.4.7-4.8 1.7-7.1 1.1-2.6 2.7-5 4.7-7s4.4-3.6 7-4.7c2.7-1.1 5.6-1.7 8.6-1.7s5.9.6 8.6 1.7c2.6 1.1 5 2.7 7 4.7s3.6 4.4 4.7 7c1 2.3 1.5 4.6 1.7 7.1h2C47.7 10.4 37.3.5 24.5.5S1.3 10.4.6 23h2z" fill="#467dfc"/><path class="aist0" d="M28.8 25c-.4-.1-.8.1-.9.5-1 3.4-4.6 5.3-8 4.3-3.4-1-5.3-4.6-4.3-8 1-3.4 4.6-5.3 8-4.3 2.1.6 3.8 2.4 4.4 4.5.1.4.5.6.9.5.4-.1.6-.5.5-.9-1.1-4.2-5.4-6.8-9.6-5.7-1.3.3-2.5 1-3.5 2-3.1 3-3.2 8-.2 11.2 1.3 1.3 3 2.2 4.8 2.4v4.1h-2.5c-.3 0-.6.3-.6.6v.4c0 .3.3.6.6.6h2.4v3c0 .4.3.8.7.8.4 0 .8-.3.8-.7v-3h2.5c.3 0 .6-.3.6-.6v-.4c0-.3-.3-.6-.6-.6h-2.5v-4.1c3.2-.3 6-2.5 6.9-5.6.2-.5 0-.9-.4-1z" fill="#f7adb5"/><path class="aist0" d="M29.4 25.4v.3c-.9 3.5-3.9 5.8-7.3 5.9h-.8c-3.4-.1-6.4-2.5-7.3-5.9v-.3c-.2-.7-.2-1.5-.2-2.2h1.5c-.1.8 0 1.6.2 2.4.8 2.7 3.2 4.5 5.9 4.5h.4c2.7-.1 5.1-1.9 5.9-4.5.2-.8.3-1.6.2-2.4h1.5c.2.8.1 1.5 0 2.2z" fill="#f7adb5"/><g><path class="aist1" d="M35.8 12h-6.4c-.4 0-.7-.3-.7-.7V11c0-.4.3-.7.7-.7h6.4c.4 0 .7.3.7.7v.3c-.1.4-.4.7-.7.7z" fill="#467dfc"/><path class="aist1" d="M36.4 11v6.4c0 .4-.3.7-.7.7h-.3c-.4 0-.7-.3-.7-.7V11c0-.4.3-.7.7-.7h.3c.4.1.7.4.7.7zM29.4 22v-.3c-.9-3.5-3.9-5.8-7.3-5.9h-.8c-3.4.1-6.4 2.5-7.3 5.9v.3c-.2.7-.2 1.5-.2 2.2h1.5c-.1-.8 0-1.6.2-2.4.8-2.7 3.2-4.5 5.9-4.5h.4c2.7.1 5.1 1.9 5.9 4.5.2.8.3 1.6.2 2.4h1.5c.2-.7.1-1.5 0-2.2z" fill="#467dfc"/><path class="aist1" d="M34.8 12c-.3-.3-.8-.4-1.1-.1L27 17.8c-.2-.2-.5-.4-.8-.6.1.9.2 1.9.2 1.9l1.1 1.3h1.2c-.2-.5-.5-1-.8-1.4l6.7-5.9c.4-.3.5-.8.2-1.1z" fill="#467dfc"/></g></svg><svg viewBox="0 0 49 49" id="boy-girl-selected" xmlns="http://www.w3.org/2000/svg"><circle class="ajst0" cx="24.5" cy="24.5" r="24" fill="#fc5e2f"/><path class="ajst1" d="M28.8 25c-.4-.1-.8.1-.9.5-1 3.4-4.6 5.3-8 4.3-3.4-1-5.3-4.6-4.3-8 1-3.4 4.6-5.3 8-4.3 2.1.6 3.8 2.4 4.4 4.5.1.4.5.6.9.5.4-.1.6-.5.5-.9-1.1-4.2-5.4-6.8-9.6-5.7-1.3.3-2.5 1-3.5 2-3.1 3-3.2 8-.2 11.2 1.3 1.3 3 2.2 4.8 2.4v4.1h-2.5c-.3 0-.6.3-.6.6v.4c0 .3.3.6.6.6h2.4v3c0 .4.3.8.7.8.4 0 .8-.3.8-.7v-3h2.5c.3 0 .6-.3.6-.6v-.4c0-.3-.3-.6-.6-.6h-2.5v-4.1c3.2-.3 6-2.5 6.9-5.6.2-.5 0-.9-.4-1z" fill="#fff"/><path class="ajst1" d="M29.4 25.4v.3c-.9 3.5-3.9 5.8-7.3 5.9h-.8c-3.4-.1-6.4-2.5-7.3-5.9v-.3c-.2-.7-.2-1.5-.2-2.2h1.5c-.1.8 0 1.6.2 2.4.8 2.7 3.2 4.5 5.9 4.5h.4c2.7-.1 5.1-1.9 5.9-4.5.2-.8.3-1.6.2-2.4h1.5c.2.8.1 1.5 0 2.2z" fill="#fff"/><g><path class="ajst1" d="M35.8 12h-6.4c-.4 0-.7-.3-.7-.7V11c0-.4.3-.7.7-.7h6.4c.4 0 .7.3.7.7v.3c-.1.4-.4.7-.7.7z" fill="#fff"/><path class="ajst1" d="M36.4 11v6.4c0 .4-.3.7-.7.7h-.3c-.4 0-.7-.3-.7-.7V11c0-.4.3-.7.7-.7h.3c.4.1.7.4.7.7zM29.4 22v-.3c-.9-3.5-3.9-5.8-7.3-5.9h-.8c-3.4.1-6.4 2.5-7.3 5.9v.3c-.2.7-.2 1.5-.2 2.2h1.5c-.1-.8 0-1.6.2-2.4.8-2.7 3.2-4.5 5.9-4.5h.4c2.7.1 5.1 1.9 5.9 4.5.2.8.3 1.6.2 2.4h1.5c.2-.7.1-1.5 0-2.2z" fill="#fff"/><path class="ajst1" d="M34.8 12c-.3-.3-.8-.4-1.1-.1L27 17.8c-.2-.2-.5-.4-.8-.6.1.9.2 1.9.2 1.9l1.1 1.3h1.2c-.2-.5-.5-1-.8-1.4l6.7-5.9c.4-.3.5-.8.2-1.1z" fill="#fff"/></g></svg><svg viewBox="0 0 49 49" id="boy2" xmlns="http://www.w3.org/2000/svg"><path class="akst0" d="M46.2 26c-.2 2.4-.7 4.8-1.7 7.1-1.1 2.6-2.7 5-4.7 7s-4.4 3.6-7 4.7c-2.7 1.1-5.6 1.7-8.6 1.7s-5.9-.6-8.6-1.7c-2.6-1.1-5-2.7-7-4.7s-3.6-4.4-4.7-7c-1-2.3-1.5-4.6-1.7-7.1h-2C1 38.6 11.4 48.5 24.1 48.5c12.8 0 23.2-9.9 23.9-22.5h-1.8zM2.3 23c.2-2.4.7-4.8 1.7-7.1 1.1-2.6 2.7-5 4.7-7s4.4-3.6 7-4.7c2.7-1.1 5.6-1.7 8.6-1.7s5.9.6 8.6 1.7c2.6 1.1 5 2.7 7 4.7s3.6 4.4 4.7 7c1 2.3 1.5 4.6 1.7 7.1h2C47.4 10.4 37 .5 24.2.5 11.5.5 1.1 10.4.3 23h2z" fill="#467dfc"/><path class="akst0" d="M36.5 12.9h-7.4c-.4 0-.7.3-.7.7v.5c0 .4.3.7.7.7H34l-7.4 6.5c-2.7-2.6-6.7-3.2-10.1-1.6-.4.2-.6.7-.4 1.1.2.4.7.6 1.1.4 3.7-1.7 8-.2 9.8 3.5 1.7 3.7.2 8-3.5 9.8-3.7 1.7-8 .2-9.8-3.5-1.1-2.3-.9-5 .5-7.2.3-.4.2-.9-.2-1.2-.4-.3-.9-.2-1.2.2-2.8 4.2-1.7 9.8 2.5 12.6 1.3.9 2.8 1.4 4.4 1.5 5 .4 9.3-3.4 9.7-8.4.1-2.1-.4-4.2-1.7-5.9l7.5-6.7s0-.1.1-.1V21c0 .4.3.7.7.7h.5c.4 0 .7-.3.7-.7v-7.4c0-.4-.3-.7-.7-.7z" fill="#467dfc"/></svg><svg viewBox="0 0 49 49" id="boy2-selected" xmlns="http://www.w3.org/2000/svg"><circle class="alst0" cx="24.2" cy="24.5" r="24" fill="#fc5e2f"/><path class="alst1" d="M36.5 12.9h-7.4c-.4 0-.7.3-.7.7v.5c0 .4.3.7.7.7H34l-7.4 6.5c-2.7-2.6-6.7-3.2-10.1-1.6-.4.2-.6.7-.4 1.1.2.4.7.6 1.1.4 3.7-1.7 8-.2 9.8 3.5 1.7 3.7.2 8-3.5 9.8-3.7 1.7-8 .2-9.8-3.5-1.1-2.3-.9-5 .5-7.2.3-.4.2-.9-.2-1.2-.4-.3-.9-.2-1.2.2-2.8 4.2-1.7 9.8 2.5 12.6 1.3.9 2.8 1.4 4.4 1.5 5 .4 9.3-3.4 9.7-8.4.1-2.1-.4-4.2-1.7-5.9l7.5-6.7s0-.1.1-.1V21c0 .4.3.7.7.7h.5c.4 0 .7-.3.7-.7v-7.4c0-.4-.3-.7-.7-.7z" fill="#fff"/></svg><svg viewBox="0 0 22 22" id="close" xmlns="http://www.w3.org/2000/svg"><path class="amst0" d="M14.015 12.915c-.4-.3-.9-.3-1.3 0-.3.4-.3.9 0 1.3l7.2 7c.4.3.9.3 1.3 0 .3-.4.3-.9 0-1.3l-7.2-7zM7.615 8.915c.4.4.9.4 1.3 0s.4-.9 0-1.3l-6.9-6.8c-.4-.4-.9-.4-1.3 0s-.4.9 0 1.3l6.9 6.8zM21.215.815c-.4-.4-.9-.4-1.3 0l-19.1 19.1c-.4.4-.4.9 0 1.3s.9.4 1.3 0l19.2-19.2c.3-.3.3-.9-.1-1.2z"/></svg><svg viewBox="0 0 15 15" id="close-search" xmlns="http://www.w3.org/2000/svg"><path class="anst0" d="M14.315 13.015l-4.7-4.6c-.2-.2-.4-.2-.6-.3-.2 0-.5.1-.6.3-.2.2-.3.4-.3.6s.1.5.3.6l4.7 4.6c.2.2.4.3.6.3.2 0 .5-.1.6-.3.2-.2.3-.4.3-.6s-.1-.4-.3-.6zM6.315 5.015l-4.5-4.5c-.4-.3-.9-.3-1.3 0-.3.3-.3.9 0 1.2l4.5 4.5c.2.2.4.3.6.3.2 0 .5-.1.6-.3.2-.2.3-.4.3-.6.1-.2 0-.4-.2-.6zM14.415.615c-.4-.4-1-.4-1.3 0l-12.5 12.5c-.3.3-.3.9 0 1.3.2.2.4.3.6.3s.5-.1.6-.3l12.5-12.6c.4-.3.4-.8.1-1.2zm-.3.2z"/></svg><svg viewBox="0 0 22 29" id="comma" xmlns="http://www.w3.org/2000/svg"><path d="M6.395 27.927a45.72 45.72 0 0010.168-9.8c2.854-3.77 4.658-8.245 5.414-13.426.1-1.132-.12-2.082-.658-2.845-.539-.765-1.323-1.27-2.358-1.52C17.927.085 16.97.269 16.1.88c-.873.616-1.397 1.433-1.574 2.456a27.665 27.665 0 01-3.947 9.947c-1.969 3.058-4.721 5.836-8.266 8.335-.871.615-1.439 1.4-1.702 2.364-.26.957-.066 1.9.588 2.83a4.062 4.062 0 002.304 1.619c.962.26 1.923.095 2.891-.505"/></svg><svg viewBox="0 0 13.5 13.4" id="comments-small" xmlns="http://www.w3.org/2000/svg"><g transform="rotate(-3 151.74 -14.905)"><path class="apst0" d="M12.1 3.5c0-.1-.1-.3-.1-.4-.1-.1-.2-.1-.4-.2-.3 0-.5.2-.5.5v1l-2.2-.6c-.1 0-.3 0-.4.1-2.6 1.5-6 .6-7.5-2s-.6-6 2-7.5 6-.6 7.5 2c.4.6.6 1.3.7 2v.8l-.1 2.6c0 .1.1.3.1.4.1.1.2.2.4.2.3 0 .5-.2.5-.5l.1-2.6c0-.3 0-.6-.1-.9v-.1C11.9-4 10.5-6 8.4-6.9c-3.3-1.5-7.1 0-8.6 3.3s0 7.1 3.3 8.6c.7.3 1.5.5 2.3.6 1.2.1 2.4-.2 3.4-.7l2.6.7h.4c.1-.1.2-.2.2-.3v-.1l.1-1.7z"/><circle class="apst0" cx="3.2" cy="-.7" r="1"/><circle class="apst0" cx="5.8" cy="-.6" r="1"/><circle class="apst0" cx="8.3" cy="-.5" r="1"/></g></svg><svg version="1.1" id="downvote" x="0" y="0" xml:space="preserve" viewBox="0 0 16 21" xmlns="http://www.w3.org/2000/svg"><style>.aqst0{fill:#fc5e2f}</style><path class="aqst0" d="M15.9 12.8c0-.1 0-.3-.4-2.8 0-.2-.1-.3-.2-.4-.1-.1-.3-.1-.5-.1s-.3.1-.4.2c-.1.1-.1.3-.1.5.3 2.2.3 2.6.3 2.6 0 .5-.4.9-.9.9h-2.2c-.2 0-.4.1-.5.3-.1.2-.1.4-.1.6.7 1.6.6 2.9.6 3.2v.2c0 1.3-.4 1.5-.6 1.6-.2 0-.4-.2-.4-.5V19c0-.5-.5-1.2-.7-1.5 0 0 0-.1-.1-.1l-4-4V5.5h7.4c.2 0 .4.2.4.4.1.6.2 1.4.3 2.2 0 .2.1.3.2.4s.3.1.5.1.3-.1.4-.2c.1-.1.1-.3.1-.5.1-.9 0-1.7-.1-2.2-.1-.8-.8-1.4-1.7-1.4H5.6c-.3-.5-.7-.7-1.2-.7H1.6C.8 3.6.1 4.3.1 5.1v8.4c0 .8.7 1.5 1.5 1.5h2.8c.4 0 .7-.1 1-.4L9 18.3c.2.3.4.7.4.8v.1c0 1 .8 1.7 1.7 1.7h.2c1-.4 1.5-1.2 1.5-2.8V18v-.2c0-.4 0-1.4-.4-2.8h1.3c1.3 0 2.2-1 2.2-2.2zm-11.5 1H1.6c-.1 0-.3-.1-.3-.3V5.1c0-.1.1-.3.3-.3h2.8c.1 0 .3.1.3.3v8.4c-.1.2-.2.3-.3.3z"/></svg><svg viewBox="0 0 19 14" id="email" xmlns="http://www.w3.org/2000/svg"><path class="arst0" d="M17.2.3H1.8C1.3.3.9.5.5.9v.5c0 .1.1.2.2.3l6 5.2-3.2 3c-.1.1-.2.2-.2.4 0 .3.2.5.5.5.1 0 .3-.1.4-.2l3.3-3 .8.7c.3.3.7.4 1.2.4.4 0 .9-.2 1.2-.4l.8-.7 3.2 3c.1.1.2.1.4.1.1 0 .3-.1.4-.2.2-.2.2-.6 0-.8l-3.1-2.9 3.5-2.9c.1.1.1.1.2 0s.1-.3.1-.4-.1-.2-.2-.3c-.1-.1-.2-.1-.4-.1-.1 0-.3.1-.3.2L10 7.5c-.3.2-.7.2-1 0L2 1.4h15.2c.3 0 .6.3.6.6v10c0 .3-.3.6-.6.6H1.8c-.3 0-.6-.3-.6-.6V6.6h-.1C1 6.4.8 6.3.7 6.3s-.4.1-.5.3H.1V12c0 .9.8 1.7 1.7 1.7h15.3c.9 0 1.7-.8 1.7-1.7V2c.1-1-.7-1.7-1.6-1.7z"/></svg><svg viewBox="0 0 54 54" id="facebook" xmlns="http://www.w3.org/2000/svg"><path class="asst0" d="M2.5 22C4.8 10.6 14.9 2 27 2s22.2 8.6 24.5 20h2C51.2 9.5 40.2 0 27 0S2.8 9.5.5 22h2zM51.5 32C49.2 43.4 39.1 52 27 52S4.8 43.4 2.5 32h-2C2.8 44.5 13.8 54 27 54s24.2-9.5 26.5-22h-2z"/><path class="asst0" d="M32.9 15h-3.6c-2.7-.2-5.1 1.8-5.3 4.5V24h-2.9c-.2 0-.4.2-.4.4v3.5c0 .2.2.4.4.4H24v10.2c0 .2.2.4.4.4h3.7c.2 0 .4-.2.4-.4V28.4H32c.2 0 .4-.2.5-.4v-3.5c0-.1 0-.2-.1-.3-.2-.1-.3-.2-.4-.2h-3.4v-3.5c0-1 .2-1.5 1.6-1.5h2.6c.2 0 .4-.2.4-.4v-3.2c.1-.2-.1-.4-.3-.4z"/></svg><svg viewBox="0 0 9.6 18.2" id="facebook2" xmlns="http://www.w3.org/2000/svg"><path class="atst0" d="M9.2.1H6.5c-2-.2-3.8 1.4-4 3.4v3.4H.4c-.2 0-.3.1-.3.3v2.6c0 .2.2.3.3.3h2.2v7.7c0 .2.2.3.3.3h2.8c.2 0 .3-.1.3-.3v-7.7h2.5c.2 0 .3-.1.3-.3V7.2c0-.1 0-.2-.1-.2 0-.1 0-.1-.1-.1H6.1V4.3c0-.7.2-1.1 1.2-1.1h2c.2 0 .3-.1.3-.3V.5C9.5.3 9.4.1 9.2.1z"/></svg><svg viewBox="0 0 20 18" id="filters" xmlns="http://www.w3.org/2000/svg"><path class="aust0" d="M.9 3.7h1.7C3 4.6 3.7 5 4.6 5c.8 0 1.6-.5 1.9-1.3h12.6c.4 0 .8-.4.8-.9v-.1c-.2-.5-.6-.7-1-.7H6.3C6 1.3 5.3.7 4.5.7c-.9 0-1.6.5-2 1.3H.8c-.5 0-.8.4-.8.9 0 .4.5.8.9.8zM18.9 8h-3c-.4-.8-1.1-1.3-1.9-1.3-.8 0-1.6.5-1.9 1.3H.8c-.5 0-.8.4-.8.9 0 .6.4.9.8.9H12c.4.8 1.1 1.3 1.9 1.3.8 0 1.6-.5 1.9-1.3h3c.4 0 .8-.4.8-.9.3-.5-.3-.9-.7-.9zM19 14.1H8.8c-.4-.8-1.1-1.3-1.9-1.3-.8 0-1.6.5-1.9 1.3H1c-.5 0-1 .5-1 .9s.4.8.8.8H5c.4.8 1.1 1.3 1.9 1.3.8 0 1.6-.5 1.9-1.3H19c.4 0 .8-.4.8-.8.2-.5-.4-.9-.8-.9z"/></svg><svg viewBox="0 0 20 20" id="girl" xmlns="http://www.w3.org/2000/svg"><path class="avst0" d="M5.6 2c-2.4 2.3-2.5 6.2-.2 8.6 1 1 2.3 1.7 3.7 1.8v6.7c0 .3.2.6.6.6.3 0 .6-.2.6-.6v-6.7c2.5-.2 4.6-1.9 5.3-4.3.1-.3-.1-.6-.4-.7-.3-.1-.6.1-.7.4-.8 2.6-3.5 4.1-6.1 3.3S4.4 7.6 5.2 5 8.7.9 11.3 1.7c1.6.5 2.9 1.8 3.3 3.5.1.3.4.5.7.4.3-.1.5-.4.4-.7-.8-3.2-4.1-5.2-7.4-4.4-1 .3-1.9.8-2.7 1.5z" fill="#f7adb5"/><path class="avst0" d="M7.4 15.6h4.8c.3 0 .6.2.6.6v.2c0 .3-.2.6-.6.6H7.4c-.3 0-.6-.2-.6-.6v-.2c0-.4.3-.6.6-.6z" fill="#f7adb5"/></svg><svg viewBox="0 0 49 49" id="girl2" xmlns="http://www.w3.org/2000/svg"><path class="awst0" d="M46.2 26c-.2 2.4-.7 4.8-1.7 7.1-1.1 2.6-2.7 5-4.7 7s-4.4 3.6-7 4.7c-2.7 1.1-5.6 1.7-8.6 1.7s-5.9-.6-8.6-1.7c-2.6-1.1-5-2.7-7-4.7s-3.6-4.4-4.7-7c-1-2.3-1.5-4.6-1.7-7.1h-2C1 38.6 11.4 48.5 24.1 48.5c12.8 0 23.2-9.9 23.9-22.5h-1.8zM2.3 23c.2-2.4.7-4.8 1.7-7.1 1.1-2.6 2.7-5 4.7-7s4.4-3.6 7-4.7c2.7-1.1 5.6-1.7 8.6-1.7s5.9.6 8.6 1.7c2.6 1.1 5 2.7 7 4.7s3.6 4.4 4.7 7c1 2.3 1.5 4.6 1.7 7.1h2C47.4 10.4 37 .5 24.3.5 11.5.5 1.1 10.4.3 23h2z" fill="#f7adb5"/><path class="awst0" d="M32.5 20.6c-.5-.1-.9.1-1.1.6-1.2 3.9-5.3 6.1-9.1 4.9-3.9-1.2-6.1-5.3-4.9-9.1 1.2-3.9 5.3-6.1 9.1-4.9 2.5.7 4.4 2.7 5 5.2.1.5.6.7 1 .6.5-.1.7-.6.6-1-1.2-4.9-6.1-7.9-11-6.6-1.5.4-2.9 1.2-4.1 2.3-3.6 3.5-3.7 9.2-.2 12.8 1.5 1.5 3.4 2.5 5.5 2.7v4.7h-2.8c-.4 0-.7.3-.7.7v.5c0 .4.3.7.7.7h2.8v3.4c0 .5.4.9.8.9.5 0 .9-.4.9-.8v-3.5h3c.4 0 .7-.3.7-.7v-.5c0-.4-.3-.7-.7-.7h-2.9v-4.7c3.7-.3 6.9-2.9 7.9-6.4.2-.5-.1-1-.5-1.1z" fill="#f7adb5"/></svg><svg viewBox="0 0 49 49" id="girl2-selected" xmlns="http://www.w3.org/2000/svg"><circle class="axst0" cx="24.3" cy="24.5" r="24" fill="#fc5e2f"/><path class="axst3" d="M32.5 20.6c-.5-.1-.9.1-1.1.6-1.2 3.9-5.3 6.1-9.1 4.9-3.9-1.2-6.1-5.3-4.9-9.1 1.2-3.9 5.3-6.1 9.1-4.9 2.5.7 4.4 2.7 5 5.2.1.5.6.7 1 .6.5-.1.7-.6.6-1-1.2-4.9-6.1-7.9-11-6.6-1.5.4-2.9 1.2-4.1 2.3-3.6 3.5-3.7 9.2-.2 12.8 1.5 1.5 3.4 2.5 5.5 2.7v4.7h-2.8c-.4 0-.7.3-.7.7v.5c0 .4.3.7.7.7h2.8v3.4c0 .5.4.9.8.9.5 0 .9-.4.9-.8v-3.5h3c.4 0 .7-.3.7-.7v-.5c0-.4-.3-.7-.7-.7h-2.9v-4.7c3.7-.3 6.9-2.9 7.9-6.4.2-.5-.1-1-.5-1.1z" fill="#fff"/></svg><svg viewBox="0 0 20 11" id="hamburger" xmlns="http://www.w3.org/2000/svg"><path d="M20 0v1.333H0V0zM0 4.833h20v1.334H0zm0 4.834h20V11H0z"/></svg><svg viewBox="0 0 54 54" id="instagram" xmlns="http://www.w3.org/2000/svg"><path class="azst0" d="M2.5 22C4.8 10.6 14.9 2 27 2s22.2 8.6 24.5 20h2C51.2 9.5 40.2 0 27 0S2.8 9.5.5 22h2zM51.5 32C49.2 43.4 39.1 52 27 52S4.8 43.4 2.5 32h-2C2.8 44.5 13.8 54 27 54s24.2-9.5 26.5-22h-2z"/><g><path class="azst0" d="M32.4 15H21.6c-3.7 0-6.6 2.9-6.6 6.6v10.8c0 3.7 3 6.6 6.6 6.6h10.8c3.7 0 6.6-3 6.6-6.6V21.6c0-3.7-2.9-6.6-6.6-6.6zm4.5 17.4c0 2.5-2 4.5-4.5 4.5H21.6c-2.5 0-4.5-2-4.5-4.5V21.6c0-2.5 2-4.5 4.5-4.5h10.8c2.5 0 4.5 2 4.5 4.5v10.8z"/><path class="azst0" d="M27 20.8c-3.4 0-6.2 2.8-6.2 6.2 0 3.4 2.8 6.2 6.2 6.2s6.2-2.8 6.2-6.2c0-3.4-2.8-6.2-6.2-6.2zm0 10.3c-2.2 0-4.1-1.8-4.1-4.1s1.9-4.1 4.1-4.1 4.1 1.8 4.1 4.1c0 2.2-1.9 4.1-4.1 4.1zM33.5 19c-.9 0-1.6.7-1.6 1.6 0 .9.7 1.6 1.6 1.6.9 0 1.6-.7 1.6-1.6 0-.4-.2-.8-.5-1.1-.3-.3-.7-.5-1.1-.5z"/></g></svg><svg viewBox="0 0 20 17.6" id="like" xmlns="http://www.w3.org/2000/svg"><path class="bast0" d="M14.3 0c-1.6 0-3.2.7-4.3 1.9C7.9-.4 4.2-.6 1.9 1.5c-2 1.9-2.5 4.9-1 7.2.3.5.7.9 1.1 1.3l2 2c.4.1.9-.1 1-.5V11L3 9c-1.8-1.6-2-4.3-.5-6 1.5-1.8 4.2-2 6-.4.3.3.6.6.8 1l.6 1 .6-1c.8-1.3 2.1-2 3.6-2 2.3 0 4.2 1.9 4.2 4.2.2 1.2-.4 2.4-1.3 3.2l-7 7-2.3-2.3c-.3-.1-.7 0-.9.2-.2.2-.3.6-.1.9L9 17.1c.5.5 1.4.5 2 0l7-7c2.4-2.1 2.7-5.7.6-8.1-1.1-1.3-2.7-2-4.3-2z"/></svg><svg viewBox="0 0 12 12" id="link" xmlns="http://www.w3.org/2000/svg"><path fill="#467dfc" class="bbst0" d="M11.464 0h-4.4c-.3 0-.5.2-.5.5s.2.5.5.5h3l-5.5 5.7c-.2.2-.2.6 0 .8s.6.2.8 0l5.6-5.6v3c0 .3.2.5.5.5s.5-.2.5-.5V.5c0-.3-.2-.5-.5-.5z"/><path fill="#467dfc" class="bbst0" d="M9.3 5.482c-.3 0-.6.2-.6.5v4.9H1.1v-7.6H6c.3 0 .5-.2.5-.5s-.2-.6-.5-.6H.5c-.3 0-.5.2-.5.5v8.7c0 .3.2.5.5.5h8.7c.3 0 .5-.2.5-.5v-5.4c.1-.3-.1-.5-.4-.5z"/></svg><svg viewBox="0 0 160 32" id="logo" xmlns="http://www.w3.org/2000/svg"><path fill="#f7adb5" d="M24.943 12.444c-.806.416-1.657.745-2.555.99-.897.244-1.84.366-2.83.366-1.452 0-2.725-.186-3.817-.559-1.094-.372-2.006-.873-2.738-1.502-.733-.628-1.286-1.349-1.658-2.16a6.012 6.012 0 01-.559-2.537c0-.915.15-1.73.45-2.445a5.192 5.192 0 011.226-1.804 5.32 5.32 0 011.813-1.117 6.276 6.276 0 012.207-.384 9.03 9.03 0 013.04.54 7.586 7.586 0 012.738 1.712c.812.782 1.471 1.789 1.978 3.022.506 1.233.76 2.716.76 4.45 0 .476-.018.952-.055 1.428zm1.428-1.501c0-1.294-.134-2.463-.403-3.507-.268-1.044-.638-1.975-1.108-2.793a8.952 8.952 0 00-1.648-2.106A9.393 9.393 0 0018.908.23a10.37 10.37 0 00-2.353-.274c-.952 0-1.862.162-2.728.485a6.801 6.801 0 00-2.29 1.41 6.744 6.744 0 00-1.566 2.234c-.384.873-.576 1.86-.576 2.958 0 1.355.287 2.54.86 3.553a7.861 7.861 0 002.272 2.536c.94.678 2.02 1.185 3.24 1.52a14.16 14.16 0 003.774.504c.94 0 1.84-.1 2.7-.302.861-.202 1.688-.48 2.482-.833-.269 2.124-.778 3.955-1.53 5.494-.75 1.538-1.674 2.805-2.773 3.8a10.677 10.677 0 01-3.718 2.206 13.21 13.21 0 01-4.34.714 12.618 12.618 0 01-2.134-.22 13.963 13.963 0 01-1.786-.457 11.434 11.434 0 01-1.95-.842c-.653-.354-1.288-.8-1.905-1.337a8.54 8.54 0 01-1.639-1.96c-.476-.77-.857-1.666-1.144-2.692-.287-1.025-.43-2.21-.43-3.553 0-1.465.167-2.771.503-3.919.336-1.148.757-2.154 1.264-3.022.506-.866 1.062-1.602 1.666-2.206A15.214 15.214 0 016.51 4.533c.531-.39.99-.68 1.374-.87l.687-.338a.768.768 0 00.32-.266.656.656 0 00.12-.375.611.611 0 00-.22-.495.732.732 0 00-.807-.11A15.143 15.143 0 004.56 4.396a13.568 13.568 0 00-2.5 3.022 13.87 13.87 0 00-1.538 3.626A15.926 15.926 0 000 15.173c0 1.465.168 2.787.504 3.965.335 1.178.796 2.228 1.383 3.15a10.256 10.256 0 002.069 2.38 11.892 11.892 0 002.564 1.649c.915.434 1.87.753 2.866.962.995.207 1.98.311 2.957.311 1.795 0 3.49-.296 5.082-.889a12.15 12.15 0 004.25-2.683c1.238-1.196 2.258-2.689 3.057-4.477.8-1.789 1.303-3.885 1.511-6.29.379-.22.745-.456 1.099-.706.354-.25.68-.497.98-.742a8.59 8.59 0 00.787-.723c.226-.238.412-.454.559-.65a.621.621 0 00.073-.311.746.746 0 00-.192-.486.627.627 0 00-.504-.229.367.367 0 00-.293.128 4.16 4.16 0 01-.412.468 13.93 13.93 0 01-1.282 1.126 5.513 5.513 0 01-.687.457zM30.108 18.128c0-.952.146-1.306.256-1.38a.646.646 0 01.366-.11c.195 0 .354.064.476.193a.815.815 0 01.22.466c.012.171.057.44.138.806.078.366.188.785.33 1.255.139.47.304.974.493 1.51.19.538.412 1.07.67 1.594a63.392 63.392 0 014.852-6.83c.122-.16.299-.24.53-.24.196 0 .361.068.496.202a.652.652 0 01.201.477.635.635 0 01-.165.44 65.253 65.253 0 00-5.146 7.325 7.09 7.09 0 001.41 1.574 2.69 2.69 0 001.74.623 2.97 2.97 0 001.63-.494c.512-.33.98-.736 1.4-1.218a9.165 9.165 0 001.1-1.557c.311-.556.552-1.06.723-1.51.122-.306.336-.458.64-.458a.65.65 0 01.505.21c.128.14.192.302.192.485 0 .062-.012.14-.037.239l-.165.366c-.122.268-.305.613-.549 1.035-.244.42-.543.882-.897 1.382-.354.5-.76.968-1.218 1.401a6.528 6.528 0 01-1.53 1.08 3.934 3.934 0 01-1.813.43 3.826 3.826 0 01-2.17-.64 7.38 7.38 0 01-1.73-1.63c-.208.366-.41.733-.605 1.099l-.586 1.099c-.134.256-.341.384-.622.384a.636.636 0 01-.504-.22.711.711 0 01-.192-.476c0-.097.03-.207.092-.33.244-.476.494-.951.75-1.428.257-.476.525-.946.806-1.41-.415-.72-.77-1.456-1.062-2.207a18.881 18.881 0 01-.696-2.115M45.088 26.198c0 .88-.132 1.73-.394 2.555-.263.824-.742 1.565-1.437 2.225a.762.762 0 01-.495.201.708.708 0 01-.476-.192.616.616 0 01-.22-.485c0-.196.067-.36.201-.495a5.058 5.058 0 001.072-1.639c.25-.617.375-1.322.375-2.115 0-.195.058-.363.174-.504a.595.595 0 01.485-.21.74.74 0 01.485.174.65.65 0 01.23.485z"/><path fill="#fc5e2f" d="M51.441 12.247c0-.635.286-.921 1.079-.921h2.92c.793 0 1.078.286 1.078.92v4.76h3.808v-4.76c0-.634.286-.92 1.08-.92h2.919c.793 0 1.079.286 1.079.92v13.71c0 .634-.222.92-1.08.92h-2.919c-.793 0-1.079-.286-1.079-.92V21.1h-3.808v4.855c0 .635-.285.92-1.079.92h-2.92c-.856 0-1.078-.285-1.078-.92zM71.942 21.957c0-1.143.54-1.428 2.063-1.428h.349c.602 0 1.11.031 1.523.094v.89c0 .888-.096 1.269-.445 1.554-.349.318-.856.476-1.49.476h-.223c-1.174 0-1.777-.349-1.777-1.46zm-4.76.317c0 3.174 1.936 4.887 5.14 4.887h.477c1.935 0 3.522-.603 4.156-1.586h.064l.19.57c.223.604.445.73 1.175.73h1.491c.794 0 1.08-.253 1.08-.888v-9.425c0-1.809-.414-3.141-1.207-3.966-1.015-1.048-2.76-1.556-5.204-1.556-2 0-3.808.223-5.426.699-.603.158-.762.412-.762.825 0 .126.031.349.064.634l.253 1.682c.127.603.318.762 1.08.603 1.427-.349 2.665-.54 3.68-.54.92 0 1.555.128 1.904.35.35.222.54.698.54 1.396v.666c-.73-.095-1.46-.126-2.222-.126h-.222c-4.347 0-6.251 1.269-6.251 4.696zM87.901 12.247c.064-.604.54-.921 1.396-.921h2.825c.73 0 1.205.317 1.396.92l2.19 7.585h.126l2.222-7.584c.159-.604.635-.921 1.396-.921h2.92c.856 0 1.332.317 1.396.92.38 4.665.57 9.235.603 13.71 0 .634-.286.92-1.079.92h-2.348c-.793 0-1.11-.286-1.08-.92.064-1.873.032-4.094-.063-6.728h-.127L98.056 24.4c-.222.635-.635.89-1.428.89h-1.714c-.762 0-1.237-.319-1.428-.922l-1.554-5.14h-.128a95.538 95.538 0 00-.031 6.727c.031.635-.286.92-1.08.92h-2.316c-.793 0-1.079-.285-1.079-.92 0-4.062.19-8.632.603-13.708zM110.624 21.957c0-1.143.539-1.428 2.062-1.428h.35c.602 0 1.11.031 1.522.094v.89c0 .888-.095 1.269-.444 1.554-.349.318-.857.476-1.491.476h-.222c-1.174 0-1.777-.349-1.777-1.46zm-4.76.317c0 3.174 1.935 4.887 5.14 4.887h.476c1.936 0 3.523-.603 4.158-1.586h.063l.19.57c.222.604.444.73 1.174.73h1.492c.793 0 1.079-.253 1.079-.888v-9.425c0-1.809-.413-3.141-1.206-3.966-1.016-1.048-2.76-1.556-5.204-1.556-2 0-3.808.223-5.427.699-.603.158-.762.412-.762.825 0 .126.032.349.064.634l.254 1.682c.127.603.317.762 1.079.603 1.428-.349 2.665-.54 3.681-.54.92 0 1.555.128 1.904.35.35.222.54.698.54 1.396v.666c-.73-.095-1.46-.126-2.222-.126h-.222c-4.347 0-6.252 1.269-6.252 4.696zM122.176 12.247c.063-.604.54-.921 1.396-.921h2.824c.73 0 1.206.317 1.396.92l2.19 7.585h.127l2.222-7.584c.158-.604.634-.921 1.395-.921h2.92c.857 0 1.333.317 1.396.92.381 4.665.572 9.235.603 13.71 0 .634-.286.92-1.078.92h-2.349c-.793 0-1.11-.286-1.079-.92.064-1.873.032-4.094-.063-6.728h-.127L132.33 24.4c-.223.635-.635.89-1.429.89h-1.713c-.762 0-1.238-.319-1.428-.922l-1.555-5.14h-.127a95.502 95.502 0 00-.032 6.727c.032.635-.285.92-1.079.92h-2.316c-.794 0-1.08-.285-1.08-.92 0-4.062.191-8.632.604-13.708zM144.898 21.957c0-1.143.54-1.428 2.063-1.428h.349c.602 0 1.11.031 1.523.094v.89c0 .888-.095 1.269-.444 1.554-.35.318-.857.476-1.492.476h-.222c-1.174 0-1.777-.349-1.777-1.46zm-4.76.317c0 3.174 1.936 4.887 5.14 4.887h.477c1.935 0 3.522-.603 4.157-1.586h.063l.19.57c.223.604.445.73 1.175.73h1.491c.794 0 1.08-.253 1.08-.888v-9.425c0-1.809-.414-3.141-1.206-3.966-1.016-1.048-2.761-1.556-5.205-1.556-1.999 0-3.808.223-5.426.699-.603.158-.762.412-.762.825 0 .126.032.349.064.634l.253 1.682c.127.603.318.762 1.08.603 1.427-.349 2.665-.54 3.68-.54.92 0 1.555.128 1.904.35.35.222.54.698.54 1.396v.666c-.73-.095-1.46-.126-2.221-.126h-.223c-4.347 0-6.251 1.269-6.251 4.696zM155.58 10.984c-.025-.813.127-.966 1.067-.966h2.285c.939 0 1.091.153 1.065.966l-.456 9.976c0 .686-.254.813-1.067.813h-1.42c-.788 0-.966-.152-.991-.762zm-.05 13.937c0-1.346.71-2.031 2.158-2.031h.076c1.447 0 2.158.685 2.158 2.03v.204c0 1.396-.864 1.98-2.158 1.98h-.076c-1.295 0-2.158-.584-2.158-1.98z"/></svg><svg viewBox="0 0 161 32" id="logo-mono" xmlns="http://www.w3.org/2000/svg"><path d="M25.568 13.13c-.806.415-1.658.745-2.555.989a10.72 10.72 0 01-2.83.366c-1.453 0-2.725-.186-3.818-.558-1.093-.373-2.005-.873-2.738-1.502-.733-.629-1.285-1.35-1.657-2.16a6.012 6.012 0 01-.559-2.538c0-.915.15-1.73.449-2.444a5.192 5.192 0 011.227-1.804A5.32 5.32 0 0114.9 2.362a6.275 6.275 0 012.207-.385c1.013 0 2.026.18 3.04.54a7.587 7.587 0 012.737 1.712c.812.782 1.472 1.789 1.979 3.022.506 1.233.76 2.717.76 4.45 0 .477-.019.953-.055 1.429zm1.428-1.502c0-1.294-.135-2.463-.403-3.507-.269-1.044-.638-1.974-1.108-2.792a8.953 8.953 0 00-1.648-2.106A9.393 9.393 0 0019.533.915 10.37 10.37 0 0017.18.64c-.952 0-1.862.162-2.728.485a6.8 6.8 0 00-2.29 1.41 6.743 6.743 0 00-1.566 2.235c-.384.873-.577 1.859-.577 2.957 0 1.356.287 2.54.861 3.554a7.862 7.862 0 002.271 2.536c.94.677 2.02 1.184 3.241 1.52 1.221.336 2.479.503 3.773.503.94 0 1.84-.1 2.701-.302a13.79 13.79 0 002.482-.833c-.27 2.124-.778 3.955-1.53 5.494-.75 1.538-1.675 2.805-2.774 3.8a10.676 10.676 0 01-3.718 2.207c-1.38.476-2.826.714-4.34.714a12.628 12.628 0 01-2.134-.22 13.951 13.951 0 01-1.785-.458 11.436 11.436 0 01-1.95-.842c-.653-.354-1.288-.8-1.905-1.337a8.54 8.54 0 01-1.64-1.96c-.475-.769-.857-1.666-1.144-2.691-.286-1.026-.43-2.21-.43-3.554 0-1.465.168-2.77.503-3.918.336-1.148.757-2.155 1.264-3.022.506-.867 1.063-1.603 1.667-2.207A15.21 15.21 0 017.135 5.22c.53-.391.989-.68 1.373-.87.385-.19.614-.302.687-.34a.767.767 0 00.32-.265.656.656 0 00.12-.375.611.611 0 00-.22-.495.732.732 0 00-.806-.11 15.14 15.14 0 00-3.424 2.317 13.569 13.569 0 00-2.5 3.022 13.87 13.87 0 00-1.539 3.626 15.925 15.925 0 00-.522 4.13c0 1.464.168 2.786.505 3.965.335 1.178.796 2.228 1.382 3.15a10.256 10.256 0 002.07 2.38 11.893 11.893 0 002.563 1.648c.916.434 1.87.754 2.866.962.995.207 1.98.311 2.958.311 1.795 0 3.489-.296 5.082-.888a12.15 12.15 0 004.249-2.683c1.238-1.196 2.258-2.69 3.058-4.478.8-1.788 1.303-3.885 1.51-6.29.38-.22.745-.455 1.1-.705.354-.25.68-.498.98-.742.298-.244.56-.486.787-.723.226-.238.412-.455.559-.65a.621.621 0 00.072-.312.746.746 0 00-.192-.485.627.627 0 00-.503-.23.367.367 0 00-.293.129c-.098.134-.236.29-.412.467a13.95 13.95 0 01-1.282 1.126 5.52 5.52 0 01-.687.458zM30.732 18.813c0-.952.146-1.306.256-1.38a.646.646 0 01.367-.11.63.63 0 01.476.193.815.815 0 01.22.467c.012.17.057.44.137.806.079.366.189.784.33 1.254.14.47.304.974.494 1.511.19.538.412 1.069.669 1.594a63.391 63.391 0 014.852-6.832c.122-.158.3-.238.531-.238.196 0 .36.068.495.202a.652.652 0 01.202.476.635.635 0 01-.165.44 65.26 65.26 0 00-5.147 7.325c.428.635.898 1.16 1.41 1.575a2.69 2.69 0 001.74.622c.574 0 1.118-.164 1.63-.494.513-.33.98-.735 1.401-1.218.422-.482.788-1 1.099-1.556.312-.556.552-1.06.724-1.511.121-.305.335-.458.64-.458a.65.65 0 01.504.21.699.699 0 01.193.486c0 .061-.013.14-.037.238a12.657 12.657 0 01-.714 1.4 18.49 18.49 0 01-.898 1.384 9.4 9.4 0 01-1.218 1.4 6.526 6.526 0 01-1.529 1.08 3.934 3.934 0 01-1.813.431 3.826 3.826 0 01-2.17-.64 7.38 7.38 0 01-1.73-1.63c-.208.366-.41.732-.605 1.098l-.586 1.099c-.135.257-.342.385-.623.385a.636.636 0 01-.503-.22.711.711 0 01-.192-.477.75.75 0 01.091-.329c.244-.476.494-.952.751-1.429.256-.475.525-.945.806-1.41-.416-.72-.77-1.456-1.063-2.206a18.89 18.89 0 01-.695-2.115M45.712 26.883c0 .88-.131 1.73-.393 2.555-.263.824-.743 1.566-1.438 2.225a.762.762 0 01-.495.202.709.709 0 01-.476-.193.616.616 0 01-.22-.485c0-.196.068-.36.202-.494a5.059 5.059 0 001.071-1.64c.25-.616.376-1.321.376-2.115 0-.195.057-.363.174-.503a.595.595 0 01.485-.21c.183 0 .345.057.485.173.14.116.217.278.23.485zM52.066 12.932c0-.635.285-.92 1.078-.92h2.92c.793 0 1.079.285 1.079.92v4.76h3.808v-4.76c0-.635.285-.92 1.079-.92h2.92c.793 0 1.078.285 1.078.92v13.709c0 .634-.222.92-1.079.92h-2.92c-.793 0-1.078-.286-1.078-.92v-4.856h-3.808v4.856c0 .634-.286.92-1.08.92h-2.919c-.857 0-1.078-.286-1.078-.92zM72.566 22.642c0-1.142.54-1.428 2.063-1.428h.35c.602 0 1.11.032 1.522.095v.89c0 .888-.095 1.268-.444 1.554-.349.317-.857.476-1.491.476h-.222c-1.175 0-1.778-.35-1.778-1.46zm-4.76.318c0 3.173 1.936 4.886 5.141 4.886h.476c1.936 0 3.523-.602 4.157-1.586h.064l.19.57c.222.604.444.73 1.174.73H80.5c.793 0 1.079-.253 1.079-.888v-9.425c0-1.808-.413-3.14-1.206-3.966-1.016-1.048-2.761-1.555-5.204-1.555-2 0-3.808.222-5.427.698-.603.158-.762.412-.762.825 0 .127.032.35.064.635l.253 1.682c.128.603.318.761 1.08.603 1.427-.35 2.665-.54 3.68-.54.921 0 1.556.127 1.905.35.35.221.54.697.54 1.396v.666c-.73-.095-1.46-.127-2.222-.127h-.222c-4.347 0-6.252 1.27-6.252 4.696zM88.526 12.932c.064-.603.54-.92 1.396-.92h2.824c.73 0 1.206.317 1.396.92l2.19 7.584h.127l2.222-7.584c.158-.603.634-.92 1.395-.92h2.92c.857 0 1.333.317 1.397.92.38 4.665.57 9.234.602 13.709 0 .634-.286.92-1.078.92h-2.349c-.793 0-1.11-.286-1.079-.92.064-1.873.032-4.094-.063-6.728h-.127l-1.618 5.172c-.223.635-.635.89-1.428.89h-1.714c-.762 0-1.238-.318-1.428-.921l-1.555-5.14h-.127a95.52 95.52 0 00-.032 6.727c.032.634-.285.92-1.079.92h-2.316c-.793 0-1.08-.286-1.08-.92 0-4.062.191-8.632.604-13.709zM111.248 22.642c0-1.142.54-1.428 2.063-1.428h.349c.603 0 1.11.032 1.523.095v.89c0 .888-.095 1.268-.444 1.554-.35.317-.857.476-1.492.476h-.222c-1.174 0-1.777-.35-1.777-1.46zm-4.76.318c0 3.173 1.936 4.886 5.14 4.886h.477c1.936 0 3.522-.602 4.157-1.586h.063l.19.57c.223.604.445.73 1.175.73h1.491c.794 0 1.08-.253 1.08-.888v-9.425c0-1.808-.413-3.14-1.207-3.966-1.015-1.048-2.76-1.555-5.204-1.555-1.999 0-3.808.222-5.426.698-.603.158-.762.412-.762.825 0 .127.032.35.064.635l.253 1.682c.127.603.318.761 1.08.603 1.427-.35 2.665-.54 3.68-.54.92 0 1.556.127 1.904.35.35.221.54.697.54 1.396v.666c-.73-.095-1.46-.127-2.221-.127h-.222c-4.348 0-6.252 1.27-6.252 4.696zM122.8 12.932c.064-.603.54-.92 1.397-.92h2.824c.73 0 1.206.317 1.396.92l2.19 7.584h.127l2.221-7.584c.159-.603.635-.92 1.396-.92h2.92c.856 0 1.332.317 1.396.92.381 4.665.571 9.234.603 13.709 0 .634-.286.92-1.079.92h-2.348c-.793 0-1.11-.286-1.08-.92.064-1.873.032-4.094-.063-6.728h-.127l-1.618 5.172c-.222.635-.635.89-1.428.89h-1.713c-.762 0-1.238-.318-1.429-.921l-1.554-5.14h-.127a95.575 95.575 0 00-.032 6.727c.032.634-.286.92-1.08.92h-2.316c-.793 0-1.079-.286-1.079-.92 0-4.062.19-8.632.603-13.709zM145.523 22.642c0-1.142.54-1.428 2.063-1.428h.348c.603 0 1.111.032 1.523.095v.89c0 .888-.095 1.268-.444 1.554-.349.317-.856.476-1.491.476h-.222c-1.174 0-1.777-.35-1.777-1.46zm-4.76.318c0 3.173 1.935 4.886 5.14 4.886h.476c1.936 0 3.523-.602 4.158-1.586h.063l.19.57c.222.604.445.73 1.174.73h1.492c.793 0 1.08-.253 1.08-.888v-9.425c0-1.808-.414-3.14-1.207-3.966-1.016-1.048-2.76-1.555-5.204-1.555-2 0-3.808.222-5.427.698-.603.158-.762.412-.762.825 0 .127.033.35.065.635l.253 1.682c.127.603.318.761 1.079.603 1.428-.35 2.665-.54 3.681-.54.92 0 1.555.127 1.904.35.35.221.54.697.54 1.396v.666c-.73-.095-1.46-.127-2.221-.127h-.223c-4.347 0-6.252 1.27-6.252 4.696zM156.205 11.67c-.026-.813.127-.966 1.066-.966h2.285c.94 0 1.092.153 1.066.965l-.457 9.977c0 .685-.254.812-1.066.812h-1.421c-.788 0-.965-.152-.99-.762zm-.05 13.936c0-1.345.71-2.031 2.157-2.031h.076c1.447 0 2.158.686 2.158 2.031v.203c0 1.396-.863 1.98-2.158 1.98h-.076c-1.295 0-2.157-.584-2.157-1.98z"/></svg><svg viewBox="0 0 16.3 17.2" id="messenger" xmlns="http://www.w3.org/2000/svg"><path class="best0" d="M16.1 6.1c-.2-.7-.4-1.4-.8-2-.5-.8-1.1-1.5-1.8-2.1-.8-.6-1.7-1.1-2.6-1.5C10.2.3 9.4.1 8.7.1h-1C7.1.2 6.5.2 6 .4c-1.1.3-2.1.8-3 1.5-.6.5-1.2 1.1-1.6 1.7-.4.6-.7 1.3-1 1.9C.2 6.2.1 7 .1 7.7c0 .3 0 .7.1 1l.3 1.5c.2.6.5 1.2.9 1.8.3.5.7.9 1.1 1.3l.1.1v3.7h.1c1.1-.6 2.1-1.3 3.2-1.9h.2c.6.2 1.2.2 1.8.3 1.2 0 2.4-.2 3.6-.6 1.1-.4 2-1.1 2.8-2 .5-.6.9-1.2 1.3-1.9.4-.9.7-1.8.7-2.8 0-.7-.1-1.4-.2-2.1m-4.6 1.5c-.8.9-1.6 1.8-2.4 2.6H9c-.7-.7-1.3-1.4-2-2h-.1c-1.2.7-2.5 1.4-3.7 2.1L5 8.4c.8-.9 1.6-1.8 2.4-2.6h.1c.7.7 1.3 1.4 2 2h.1l3.7-2.1c-.7.6-1.3 1.3-1.8 1.9z"/></svg><svg viewBox="0 0 15 11" id="next" xmlns="http://www.w3.org/2000/svg"><path d="M14.254 5.04L9.92.709a.766.766 0 00-1.083 1.083l3.025 3.026H.713a.766.766 0 100 1.531h11.15L8.838 9.374a.766.766 0 001.083 1.083l4.333-4.333a.766.766 0 000-1.083z"/></svg><svg viewBox="0 0 21 21" id="paid-article" xmlns="http://www.w3.org/2000/svg"><path class="bgst0" fill="#fdcddd" d="M0 0h21v21H0z"/><path class="bgst1" fill="#212324" d="M5 4.6h1.8v10.9H5zM8.5 4.6h1.8v10.9H8.5zM11.2 4.6H13v10.9h-1.8zM14.7 4.6h1.8v10.9h-1.8z"/></svg><svg viewBox="0 0 15 15" id="password" xmlns="http://www.w3.org/2000/svg"><path class="bhst0" d="M14.8 4.9c-.4-1.1-1-2.1-1.8-2.9-.8-.8-1.8-1.4-2.9-1.8-.8-.4-1.8-.2-2.5.5L5.3 3c-.7.7-.9 1.7-.5 2.6.2.2.3.5.4.8L.1 11.5s-.1.2-.1.3v2.6c0 .3.3.6.6.6h2.6c.3 0 .6-.3.6-.6v-1.1h1.1c.3 0 .6-.3.6-.6v-1.1h1.1c.3 0 .6-.3.6-.6s-.3-.6-.6-.6H4.8c-.3 0-.6.3-.6.6v1.1h-1c-.3 0-.6.3-.6.6v1.1H1.2V12l5.2-5.2c.2-.2.2-.5.1-.7-.3-.3-.4-.6-.6-1-.2-.4-.1-1 .2-1.3l2.3-2.3c.3-.3.8-.4 1.3-.3.9.3 1.8.9 2.5 1.5.7.7 1.2 1.6 1.6 2.5.2.4.1.9-.3 1.3l-2.3 2.3c-.3.3-.8.4-1.3.3-.4-.1-.7-.3-1.1-.5-.3-.2-.6-.1-.8.2-.2.2-.1.6.2.8l1.2.6c.9.4 1.9.2 2.6-.5l2.3-2.3c.7-.7.9-1.7.5-2.5z"/><circle class="bhst0" cx="10.5" cy="4.5" r="1.5"/></svg><svg version="1.1" id="pencil1" x="0" y="0" xml:space="preserve" viewBox="0 0 48 48" xmlns="http://www.w3.org/2000/svg"><style>.bist0{fill:#28145e}</style><path class="bist0" d="M47.2 45.8L43 30.7c-.1-.2-.2-.4-.3-.5L15.9 3.3A9.1 9.1 0 009.6.8C7.2.8 5 1.7 3.3 3.3A9.1 9.1 0 00.8 9.6c0 2.4.9 4.6 2.6 6.3l20.2 20.2c.4.4 1.2.4 1.6 0 .4-.4.4-1.2 0-1.6L7.6 16.9 17 7.6l23.3 23.3L30.2 41c-.3.3-.4.7-.3 1.1.1.4.4.7.8.8l15.1 4.3c.4.1.8 0 1.1-.3.3-.3.4-.7.3-1.1zM6 15.4l-1.1-1.1C3.7 13 3 11.4 3 9.6c0-1.8.7-3.4 1.9-4.7C6.2 3.7 7.8 3 9.6 3s3.4.7 4.7 1.9L15.4 6 6 15.4zm27.1 25.9l8.2-8.2 3.2 11.4-11.4-3.2z"/></svg><svg version="1.1" id="pencil2" x="0" y="0" xml:space="preserve" viewBox="0 0 15 15" xmlns="http://www.w3.org/2000/svg"><style>.bjst0{fill:#5b5b5b}</style><path class="bjst0" d="M15 14.2l-1.3-4.7c0-.1-.1-.2-.2-.3L5.1.9C4.6.3 3.8 0 3 0S1.4.3.9.9C.3 1.4 0 2.2 0 3s.3 1.6.9 2.1l6.3 6.3c.2.2.6.2.8 0 .2-.2.2-.6 0-.8L2.7 5.3l2.6-2.6 6.9 6.9-3 3c-.1.1-.2.4-.2.6.1.2.2.4.4.4l4.7 1.3h.2c.2 0 .3-.1.4-.2.3 0 .3-.2.3-.5zm-1.4-.7l-2.7-.8 2-2 .7 2.8zM4.5 1.9L1.9 4.5l-.2-.2c-.3-.4-.5-.8-.5-1.3s.2-.9.5-1.3c.4-.3.8-.5 1.3-.5s.9.2 1.3.5l.2.2z"/></svg><svg viewBox="0 0 15.7 26.7" id="pregnant" xmlns="http://www.w3.org/2000/svg"><path class="bkst0" d="M11.8 15.5c-.6-.4-1.2-.7-1.2-1-.1-.9-.5-1.8-1.2-2.4-.2-.2-.5-.2-.8 0-.1.1-.2.2-.2.4 0 .1.1.3.2.4.5.5.8 1.1.8 1.8.1.9.9 1.3 1.7 1.8 1.4.8 3.1 1.7 3.1 4.6 0 2.7-.9 4-1.2 4.5H4.5c0-.5 0-1-.1-1.5 0-.3-.3-.5-.6-.5-.1 0-.3.1-.4.2-.1.1-.1.2-.1.4 0 .8.1 1.4.1 2 0 .3.2.5.5.5h9.4c.1 0 .3 0 .3-.1.1-.1 1.7-1.5 1.7-5.4.1-3.7-2.1-4.9-3.5-5.7zm-.1.1z"/><path class="bkst0" d="M3.8 22.8c.3 0 .6-.3.5-.6-.1-1.3-.2-2.5-.3-3.6-.2-1.6-.3-3-.3-3.7v-.4c.2-1.1.5-2.2.9-3.3h1.8c.5.3.9.5 1.2.7.1.2.4.1.6-.1.2-.2.1-.6-.1-.7-.3-.2-.6-.4-1-.6l.3-.9h.5c.5-.1.9-.4 1.2-.8 1-1.4.4-4.5.3-5.2 0-.6.1-1.2.1-1.7 0-.2-.1-.4-.3-.5C7.9.7 6.4.3 4.9.2 3.1.2 2 .8 1.5 2c-.3.9-.4 1.8-.4 2.7 0 1-.1 2-.3 2.9 0 .3.1.5.4.6.3.1.6-.1.6-.4.2-1 .3-2 .3-3.1 0-.8.1-1.6.3-2.3.5-.9 1.4-1.3 2.4-1.2 1.2.1 2.4.4 3.6.9-.1 1-.3 1.9-.5 2.7C7.4 6.5 6.2 8 4.6 8.6c-.2.1-.3.2-.4.3-.6 1.5-1.1 3.1-1.5 4.6-.2-.2-.4-.5-.6-.7-.7-1-1-2.2-.6-3.4.1-.3-.1-.6-.4-.6-.3-.1-.6.1-.6.4-.4 1.5-.1 3.1.8 4.3.4.5.8 1 1.3 1.4v.1c0 .7.1 2.2.3 3.8.1 1 .2 2.3.3 3.6.1.2.3.4.6.4zm1.1-12.7c.1-.2.2-.4.2-.6C6.7 8.8 7.9 7.6 8.6 6c0 .7-.1 1.5-.4 2.1-.1.2-.3.3-.4.3l-.9.1c-.2 0-.4.2-.5.4L6 10.1H4.9z"/></svg><svg viewBox="0 0 29.4 29.3" id="profile" xmlns="http://www.w3.org/2000/svg"><path class="blst0" d="M14.6 29.1C6.6 29.1.1 22.6.1 14.6S6.6.1 14.6.1s14.5 6.5 14.5 14.5-6.5 14.5-14.5 14.5zm0-27.7C7.4 1.4 1.4 7.3 1.4 14.6s5.9 13.2 13.2 13.2c7.3 0 13.2-5.9 13.2-13.2S21.9 1.4 14.6 1.4z"/><path class="blst1" d="M7.3 20.7c.1.1.3.1.6.2.6 0 .6-.2.7-.8v-.6c0-.9.1-2 1.2-2.4l.2-.1c2.3-.8 4.6-1.7 7.2-.8l.7.2c2.5.8 2.7.9 2.9 3.9 0 .5.2.5.7.5h.1c.2 0 .3 0 .4-.1.1-.1.1-.2.1-.5-.1-3.5-.9-4.3-3.6-5.1-.3-.1-.6-.2-.8-.2-.3-.1-.5-.1-.8-.2-1.4-.2-2.8-.7-4.1-1.4-1.5-1-2.1-2.9-1.4-4.6.7-1.7 2.4-2.6 4.1-2.3 1.6.3 2.7 1.4 3.1 2.9.3 1.3 0 2.6-.9 3.3l-.1.1-.2.2.1.1c.1 0 .1.1.2.1.5.3 1.2.1 1.6-.4 0-.1.1-.1.1-.2 1.3-2.4.5-5.5-2-6.8-.8-.4-1.7-.6-2.5-.6-1.5 0-3.1.7-4.1 2-.7 1.2-1.1 2.6-.9 3.9.2 1.4.9 2.6 2 3.4l.2.2-.2.2c-.3.2-.6.4-.9.4-3 .9-3.4 1.2-3.7 4.9-.1.4-.1.5 0 .6"/></svg><svg viewBox="0 0 14.7 29.3" id="ruler" xmlns="http://www.w3.org/2000/svg"><path class="bmst0" d="M12.6 2.3c0-.2-.3-.4-.7-.4H2.5c-.4 0-.7.2-.7.4v24.4c0 .4.3.7.7.7s.7-.3.7-.7V3.3h8.1V6h-2v.9h1.9v3.2H7.5v.9h3.8v3.2h-2v.8h1.9v3.2H7.5v.9h3.8v3.2h-2v.9h1.9V26H6.7c-.4 0-.7.3-.7.7 0 .4.3.7.7.7h5.9V2.3z"/></svg><svg viewBox="0 0 29.4 29.3" id="scale" xmlns="http://www.w3.org/2000/svg"><path class="bnst0" d="M14.796 13.164c-4.6 0-8.4 2.3-8.4 5.1s3.7 5.1 8.4 5.1 8.4-2.3 8.4-5.1-3.8-5.1-8.4-5.1zm0 8.9c-3.9 0-7.1-1.7-7.1-3.9s3.2-3.9 7.1-3.9 7.1 1.7 7.1 3.9-3.2 3.9-7.1 3.9z"/><path class="bnst0" d="M14.696 14.164c-.3 0-.5.3-.5.6v3.1c0 .3.2.6.5.6s.5-.3.5-.6v-3.1c0-.4-.2-.6-.5-.6z"/><path class="bnst0" d="M23.996 13.864c-1.6-2.4-3.9-4.2-6.7-5.1v-2.1h5.3c1.3 0 2.5-.9 2.9-2.2l.5-1.7c.1-.4-.1-.8-.5-.9h-21.3c-.4 0-.7.3-.7.7v.2l.5 1.7c.4 1.3 1.5 2.2 2.9 2.2h5.3v2.1c-2.7.9-5.1 2.7-6.7 5.1-2.5 3.8-3.8 8.3-3.7 12.8 0 .4.3.7.7.7h4.3c.4 0 .7-.3.7-.7 0-.4-.3-.7-.7-.7h-3.6c.2-9 5.4-16.2 11.6-16.2 6.2 0 11.3 7.2 11.6 16.2h-14.6c-.4 0-.7.3-.7.7 0 .4.3.7.7.7h15.2c.4 0 .7-.3.7-.7.1-4.5-1.2-9-3.7-12.8zm-17.2-8.6c-.7 0-1.3-.5-1.5-1.2l-.2-.8h19.3l-.2.8c-.2.7-.8 1.2-1.5 1.2h-15.9zm9.1 3.3c-.4-.1-.8-.1-1.2-.1-.4 0-.8 0-1.2.1v-1.8h2.5v1.8z"/></svg><svg viewBox="0 0 18.9 17.5" id="search" xmlns="http://www.w3.org/2000/svg"><path class="bost0" d="M7 .1c4-.3 7.6 2.8 7.9 6.9.1 1.7-.4 3.4-1.4 4.8l5.1 4.4c.3.3.3.7.1 1-.3.3-.7.3-1 .1l-5.1-4.4a7.33 7.33 0 01-8.2 1.3c-.4-.2-.6-.6-.4-1 .2-.4.6-.5.9-.3 3 1.4 6.5.1 8-2.9S13 3.5 10 2 3.5 2 2.1 5c-.9 1.9-.7 4.1.4 5.9.2.3.1.8-.2 1s-.8.1-1-.2C-1 8.3 0 3.7 3.3 1.5 4.5.6 5.7.2 7 .1z"/></svg><svg viewBox="0 0 29.4 29.3" id="settings" xmlns="http://www.w3.org/2000/svg"><path class="bpst0" d="M14.7 29.1C6.7 29.1.2 22.6.2 14.6S6.7.1 14.7.1s14.5 6.5 14.5 14.5-6.5 14.5-14.5 14.5zm0-27.7c-7.3 0-13.2 6-13.2 13.2 0 7.3 5.9 13.2 13.2 13.2s13.2-5.9 13.2-13.2c0-7.2-5.9-13.2-13.2-13.2z"/><path class="bpst0" d="M14.4 10.3c-2.4 0-4.3 1.9-4.3 4.3 0 .7.2 1.4.5 2l.1.1v.1s0 .1.1.1c.1.1.3.2.5.2s.4-.1.5-.2c.1-.1.2-.3.2-.5s-.1-.4-.2-.5l-.1-.1c-.2-.2-.3-.8-.3-1.2 0-1.6 1.3-2.9 2.9-2.9s2.9 1.3 2.9 2.9-1.3 2.9-2.9 2.9c-.3 0-.5 0-.8-.1-.3-.2-.7-.2-1 0-.1.1-.2.3-.2.5s.1.4.2.5c.1.1.1.1.2.1h.1c.5.2 1 .3 1.6.3 2.4 0 4.3-1.9 4.3-4.3 0-2.2-1.9-4.2-4.3-4.2z"/><path class="bpst0" d="M23.1 12.5l-1.2-.2c-.1-.4-.3-.8-.5-1.1l.7-1c.4-.5.3-1.3-.1-1.7l-1.2-1.2c-.5-.6-1.3-.7-1.8-.3l-1 .7c-.4-.2-.8-.4-1.2-.5L16.6 6c-.1-.7-.7-1.1-1.3-1.1h-1.7c-.7 0-1.2.5-1.3 1.1L12 7.3c-.4.1-.8.3-1.1.5L9.8 7c-.5-.4-1.2-.3-1.7.2L6.9 8.4c-.5.5-.5 1.2-.1 1.7l.7 1c-.2.4-.3.7-.5 1.1l-1.2.2c-.7.1-1.1.7-1.1 1.3v1.7c0 .7.5 1.2 1.1 1.3l1.3.2c.1.4.3.8.5 1.1l-.7 1c-.5.8-.4 1.5.1 2l1.2 1.2s.1.1.1 0c.1.2.3.3.6.3.4 0 .7-.3.7-.7 0-.2-.1-.5-.3-.6L8 20l1-1.3c.2-.2.2-.5 0-.8-.3-.5-.5-1.1-.7-1.6-.1-.3-.3-.5-.6-.6l-1.6-.3v-1.6l1.6-.3c.3 0 .5-.3.6-.5.1-.5.4-1 .7-1.6.1-.2.1-.5 0-.8L8 9.2l1.1-1.1 1.3 1c.2.2.5.2.8 0 .5-.3 1.1-.5 1.6-.7.3-.1.5-.3.5-.6l.3-1.6h1.6l.3 1.6c0 .3.3.5.5.6.6.1 1.2.4 1.7.7.2.1.5.1.8 0l1.3-1 1.1 1.1-1 1.3c-.2.2-.2.5 0 .8.3.5.5 1.1.7 1.6.1.3.3.5.6.5l1.6.3v1.6l-1.6.3c-.3 0-.5.3-.6.5-.1.6-.4 1.1-.7 1.6-.1.2-.1.5 0 .8l1 1.4-1.1 1.1-1.3-1c-.2-.2-.5-.2-.8 0-.5.3-1.1.5-1.6.7-.3.1-.5.3-.5.6l-.4 1.7h-1.6l-.3-1.6c0-.3-.2-.5-.5-.6-.4-.1-.9-.3-1.4-.5-.5-.3-1.1.1-1.1.6 0 .3.2.5.4.6.4.2.7.4 1.2.5l.2 1.2c.1.7.7 1.1 1.3 1.1h1.7c.7 0 1.2-.5 1.3-1.1l.2-1.2c.4-.1.8-.3 1.1-.5l1 .7c.5.4 1.3.3 1.7-.1l1.2-1.2c.5-.5.5-1.2.1-1.7l-.7-1c.2-.4.3-.7.5-1.1l1.2-.2c.7-.1 1.1-.7 1.1-1.3v-1.7c.4-.8-.1-1.3-.7-1.4z"/></svg><svg viewBox="0 0 13 11.9" id="share-small" xmlns="http://www.w3.org/2000/svg"><path class="bqst0" d="M10.3 7.4c-.6 0-1.2.3-1.6.8v.1L4.4 6.6v-.1-.1-.1-.4l4.4-2.1V4c.4.4.9.7 1.5.8.6 0 1.1-.1 1.6-.5.9-.8 1-2.1.3-3.1-.4-.4-.9-.7-1.5-.8-.6 0-1.1.1-1.6.5-.6.5-.9 1.3-.7 2.1v.1l-4.5 2c-.4-.4-.9-.7-1.4-.7-.5 0-1 .1-1.4.5-.4.3-.7.8-.7 1.3s.1 1 .5 1.4c.4.4.8.6 1.4.7.5 0 1-.1 1.4-.5l.3-.3 4.3 1.7V9.5c0 1.1.9 2 2 2s2-.9 2-2-.9-2.1-2-2.1z"/></svg><svg viewBox="0 0 15 15" id="star" xmlns="http://www.w3.org/2000/svg"><path class="brst0" d="M7.5.4l2.3 4.7 5.2.7-3.8 3.7.9 5.1-4.6-2.4-4.6 2.4.9-5.1L0 5.8l5.2-.7z"/></svg><svg version="1.1" id="upvote" x="0" y="0" xml:space="preserve" viewBox="0 0 16 21" xmlns="http://www.w3.org/2000/svg"><style>.bsst0{fill:#16c97d}</style><path class="bsst0" d="M13.7 5.9h-1.3c.4-1.3.4-2.4.4-2.8v-.2c0-1.6-.5-2.4-1.5-2.8h-.2c-1 0-1.7.8-1.7 1.7v.1c-.1.1-.2.4-.4.8L5.4 6.3c-.3-.3-.6-.4-1-.4H1.6C.8 5.9.1 6.6.1 7.4v8.4c0 .8.7 1.5 1.5 1.5h2.8c.5 0 .9-.2 1.2-.6h7.7c.8 0 1.5-.6 1.7-1.4.1-.6.2-1.4.3-2.2 0-.2 0-.3-.1-.5-.1-.1-.2-.2-.4-.2s-.3 0-.5.1-.2.2-.2.4c-.1.9-.2 1.7-.3 2.2 0 .2-.2.4-.4.4H5.9V7.6l4-4 .1-.1c.2-.3.6-1 .7-1.5v-.2c0-.2.2-.4.4-.5.2.1.5.3.6 1.6V3.2c0 .2 0 1.6-.6 3.2-.1.2-.1.4.1.6.1.2.3.3.5.3h2.2c.5 0 .9.4.9.9 0 .1 0 .4-.3 2.6 0 .2 0 .3.1.5.1.1.2.2.4.2s.3 0 .5-.1c.1-.1.2-.2.2-.4.4-2.5.4-2.7.4-2.8-.2-1.3-1.1-2.3-2.4-2.3zM4.6 7.4v8.4c0 .1-.1.3-.3.3H1.6c-.1 0-.3-.1-.3-.3V7.4c0-.1.1-.3.3-.3h2.8c.1 0 .2.2.2.3z"/></svg><svg viewBox="0 0 15 16" id="user" xmlns="http://www.w3.org/2000/svg"><path d="M.094 15.482c.085.096.267.147.555.158.566.017.609-.167.669-.823a9.75 9.75 0 00.029-.555c.033-.888.074-1.995 1.185-2.397l.232-.084c2.263-.822 4.603-1.673 7.189-.828l.705.226c2.464.786 2.657.917 2.858 3.913.035.509.213.516.742.538l.092.004c.184.01.323-.017.385-.078.069-.067.099-.22.095-.481-.053-3.543-.857-4.307-3.594-5.094-.28-.081-.564-.15-.847-.219a19.915 19.915 0 01-.774-.197 13.62 13.62 0 01-4.06-1.359C4.019 7.21 3.459 5.3 4.206 3.653a3.82 3.82 0 014.148-2.338c1.554.331 2.706 1.404 3.093 2.874.338 1.285.003 2.567-.873 3.344l-.101.083c-.064.051-.193.155-.201.201 0 0 .009.043.109.126a1.143 1.143 0 001.725-.29A5.004 5.004 0 0010.278.649a5.15 5.15 0 00-6.574 1.346 5.137 5.137 0 00-1.056 3.814 5.138 5.138 0 001.95 3.444l.239.187-.227.198a1.804 1.804 0 01-.947.432C.708 10.966.309 11.298.007 14.968c-.021.256.007.424.087.514"/></svg><svg viewBox="0 0 27.6 25.3" id="validate" xmlns="http://www.w3.org/2000/svg"><path class="bust0" d="M23.3 12.1c.1 2.8-.8 5.6-2.7 7.7-1.9 2.1-4.5 3.4-7.4 3.5-2.8.1-5.6-.8-7.7-2.7-2.1-1.9-3.4-4.5-3.5-7.4-.1-2.9.8-5.6 2.7-7.7C8.6 1.1 15.4.8 19.8 4.7L21 3.4C15.9-1.2 8-.8 3.3 4.3 1.1 6.8 0 10 .1 13.4c.2 3.3 1.6 6.4 4.1 8.6 2.3 2.1 5.3 3.2 8.3 3.2h.7c3.3-.2 6.4-1.6 8.6-4.1 2.4-2.6 3.5-6.1 3.1-9.6l-1.6.6z"/><path class="bust0" d="M27.1 3.2c-.4-.4-1-.4-1.4 0L13.2 15.8l-5-5.8c-.4-.4-1-.5-1.4-.1-.4.4-.5 1-.1 1.4l5.7 6.6c.1.1.1.1.2.1l.1.1c.1.1.3.1.4.1.1 0 .2 0 .4-.1 0 0 .1 0 .1-.1.1 0 .1-.1.2-.1L27.1 4.7c.4-.4.4-1.1 0-1.5"/></svg><svg viewBox="0 0 15.7 16.1" id="viber" xmlns="http://www.w3.org/2000/svg"><path class="bvst0" d="M13.5 6.8c-.1-2.4-1.9-4.3-4.2-4.6H8.7c-.3 0-.6.2-.6.5 0 .2 0 .3.1.5.2.2.4.3.7.3h.2c2.1.5 2.8 1.2 3.2 3.3V7c0 .3 0 .8.6.8h.2c.5-.1.5-.6.5-.8-.1-.1-.1-.1-.1-.2zM8.6 1.4h.2c3.5.5 5.1 2.2 5.5 5.7v.2c0 .3 0 .8.6.9.2 0 .3-.1.5-.2.2-.2.2-.5.2-.7v-.2c-.1-3.7-3-6.7-6.6-7h-.1-.2c-.3 0-.7.2-.7.6v.1c-.2.5.3.6.6.6zm5.5 10.2l-.2-.2-1.2-.9-.2-.2c-.4-.3-.9-.5-1.4-.5-.6 0-1.2.4-1.5.9-.1.2-.4.4-.7.4-.2 0-.4-.1-.5-.1-1.5-.5-2.7-1.7-3.4-3.2-.3-.7-.2-1.2.3-1.6.5-.2.9-.8.9-1.4C5.7 3.3 4.7 2 3.4 1 3 .9 2.7.9 2.3 1c-.8.3-1.5.8-1.9 1.6C0 3.4.1 4.3.4 5c1 2.4 2.4 4.6 4.2 6.5 1.9 1.8 4 3.3 6.4 4.3.2.1.4.1.6.2h.2c1.4-.1 2.5-1 3-2.3.6-1.1-.1-1.6-.7-2.1m-5-7.4c-.3 0-.6.1-.8.4 0 .3 0 .4.1.6.1.2.3.3.6.3.7.1 1.3.7 1.3 1.4 0 .3.3.6.6.6h.1c.4 0 .6-.3.6-.9 0-.6-.3-1.2-.8-1.7-.5-.4-1.1-.6-1.7-.7"/></svg><svg viewBox="0 0 15.9 10" id="views-small" xmlns="http://www.w3.org/2000/svg"><path class="bwst0" d="M15.7 4.665c-.1-.2-3.5-4.7-7.7-4.7s-7.6 4.5-7.7 4.7c-.1.2-.1.4 0 .6.7.9 1.5 1.7 2.4 2.5.3-.2.6-.3 1-.5-.8-.7-1.6-1.4-2.3-2.2.8-1 3.5-4 6.7-4s5.9 3 6.7 4c-.8 1-3.5 4-6.7 4-1 0-2-.3-2.9-.8l-.7.8c1.1.6 2.3 1 3.6 1 4.3 0 7.6-4.5 7.7-4.7 0-.2 0-.5-.1-.7z"/><path class="bwst0" d="M7.939 1.896c-1.7 0-3.1 1.4-3.1 3.1s1.4 3.1 3.1 3.1 3.1-1.4 3.1-3.1c0-1.7-1.4-3.1-3.1-3.1zm0 5.2c-1.1 0-2.1-.9-2.1-2.1s1-2.1 2.1-2.1 2.1 1 2.1 2.1-.9 2.1-2.1 2.1z"/></svg><svg viewBox="0 0 15 16" id="weight" xmlns="http://www.w3.org/2000/svg"><path fill="#5b5b5b" d="M13.435 8.785a.55.55 0 00-.624.459l-.75 4.869a.198.198 0 01-.193.166H8.072a.55.55 0 00.042-.207V9.884a.549.549 0 00-1.098 0v4.188a.55.55 0 00.042.207h-3.8a.198.198 0 01-.191-.168l-.361-2.337a.542.542 0 00-.208-.365c-.096-.074-.215-.109-.408-.11a.55.55 0 00-.471.616l.363 2.361a1.298 1.298 0 001.279 1.099h8.612c.632 0 1.18-.472 1.274-1.097l.749-4.866a.552.552 0 00-.461-.627zM14.787.417A1.297 1.297 0 0013.835 0H1.294C.949 0 .624.134.379.379A1.285 1.285 0 00.016 1.49l1.397 9.081c.022.146.1.274.22.361a.54.54 0 00.406.098.55.55 0 00.458-.625L1.1 1.324c-.017-.107.057-.208.194-.226h12.54c.055 0 .102.02.14.057.038.038.058.086.055.169l-.716 4.661a.55.55 0 00.857.542.557.557 0 00.225-.361l.72-4.676a1.317 1.317 0 00-.328-1.073z"/><path fill="#5b5b5b" d="M11.979 2.446h-5.09a.527.527 0 000 1.052h4.565v3.161H9.538l-.062-.158a1.84 1.84 0 00-2.093-1.118 1.65 1.65 0 00-.338.11l-.157.07-1.096-1.096c-.092-.091-.252-.162-.371-.141a.522.522 0 00-.37.149.529.529 0 00.003.74L6.14 6.303l-.13.308-.186.048H4.078V3.498h.997a.527.527 0 000-1.052H3.554a.527.527 0 00-.526.526v4.212c0 .29.236.526.526.526h8.425c.29 0 .525-.236.525-.526V2.972a.526.526 0 00-.525-.526z"/></svg></defs>

</svg>