<svg xmlns="http://www.w3.org/2000/svg" width="198.5" height="15.8" fill="#f7adb5"><path class="st0" d="M196.1 6.8c-3 0-5.9-1-8.2-3h-.1c-.1-.1-.2-.1-.2-.2-6-4.8-14.5-4.8-20.6 0-4.8 3.9-11.7 3.9-16.5 0-.1-.1-.3-.1-.4-.2-2.8-2.1-6.2-3.2-9.6-3.1-3.7-.1-7.4 1.2-10.3 3.6-4.8 3.9-11.7 3.9-16.5 0h-.1c-.1-.1-.1-.2-.2-.2-6-4.8-14.5-4.8-20.6 0-2.3 1.9-5.2 3-8.2 3-2.7.1-5.3-.8-7.5-2.4-.1-.3-.2-.4-.3-.5-6-4.8-14.5-4.8-20.6 0-4.8 3.9-11.7 3.9-16.5 0h-.1c-.1-.1-.1-.2-.2-.2-6-4.8-14.5-4.8-20.6 0C14 7.5 7.1 7.5 2.3 3.6c-.1-.1-.2-.2-.4-.2V13c5.9 3.6 13.4 3.2 18.9-1.1 4.8-3.9 11.7-3.9 16.5 0l.1.1c.1.1.1.2.2.2 6 4.8 14.5 4.8 20.6 0 2.3-1.9 5.2-3 8.2-2.9 2.7-.1 5.3.8 7.5 2.4l.3.3c6 4.8 14.5 4.8 20.6 0 4.8-3.9 11.7-3.9 16.5 0l.1.1c.1.1.1.2.2.2 6 4.8 14.5 4.8 20.6 0 4.8-3.9 11.7-3.9 16.5 0 .1.1.3.2.4.2 2.8 2.1 6.2 3.2 9.6 3.1 3.7.1 7.4-1.2 10.3-3.6 4.8-3.9 11.7-3.9 16.5 0l.1.1c.1.1.1.2.2.2 2.9 2.4 6.5 3.6 10.3 3.6h.7v-9c-.3-.2-.5-.1-.7-.1z"/></svg>