<svg viewBox="0 0 15 16" id="weight" xmlns="http://www.w3.org/2000/svg"><path fill="#5b5b5b" d="M13.435 8.785a.55.55 0 00-.624.459l-.75 4.869a.198.198 0 01-.193.166H8.072a.55.55 0 00.042-.207V9.884a.549.549 0 00-1.098 0v4.188a.55.55 0 00.042.207h-3.8a.198.198 0 01-.191-.168l-.361-2.337a.542.542 0 00-.208-.365c-.096-.074-.215-.109-.408-.11a.55.55 0 00-.471.616l.363 2.361a1.298 1.298 0 001.279 1.099h8.612c.632 0 1.18-.472 1.274-1.097l.749-4.866a.552.552 0 00-.461-.627zM14.787.417A1.297 1.297 0 0013.835 0H1.294C.949 0 .624.134.379.379A1.285 1.285 0 00.016 1.49l1.397 9.081c.022.146.1.274.22.361a.54.54 0 00.406.098.55.55 0 00.458-.625L1.1 1.324c-.017-.107.057-.208.194-.226h12.54c.055 0 .102.02.14.057.038.038.058.086.055.169l-.716 4.661a.55.55 0 00.857.542.557.557 0 00.225-.361l.72-4.676a1.317 1.317 0 00-.328-1.073z"/><path fill="#5b5b5b" d="M11.979 2.446h-5.09a.527.527 0 000 1.052h4.565v3.161H9.538l-.062-.158a1.84 1.84 0 00-2.093-1.118 1.65 1.65 0 00-.338.11l-.157.07-1.096-1.096c-.092-.091-.252-.162-.371-.141a.522.522 0 00-.37.149.529.529 0 00.003.74L6.14 6.303l-.13.308-.186.048H4.078V3.498h.997a.527.527 0 000-1.052H3.554a.527.527 0 00-.526.526v4.212c0 .29.236.526.526.526h8.425c.29 0 .525-.236.525-.526V2.972a.526.526 0 00-.525-.526z"/></svg>